<?xml version="1.0" encoding="UTF-8"?>
<!DOCTYPE svg PUBLIC "-//W3C//DTD SVG 1.1//EN" "http://www.w3.org/Graphics/SVG/1.1/DTD/svg11.dtd">
<!-- Creator: CorelDRAW -->
<svg xmlns="http://www.w3.org/2000/svg" xml:space="preserve" width="100%" height="100%" style="shape-rendering:geometricPrecision; text-rendering:geometricPrecision; image-rendering:optimizeQuality; fill-rule:evenodd; clip-rule:evenodd"
viewBox="0 0 21 6"
 xmlns:xlink="http://www.w3.org/1999/xlink">
 <defs>
  <style type="text/css">
   <![CDATA[
    .str6 {stroke:black;stroke-width:0.00762}
    .str3 {stroke:black;stroke-width:0.00762;stroke-linejoin:bevel}
    .str2 {stroke:#003333;stroke-width:0.00762}
    .str4 {stroke:lime;stroke-width:0.00762;stroke-linejoin:bevel}
    .str5 {stroke:#336666;stroke-width:0.00762;stroke-linejoin:bevel}
    .str0 {stroke:#332C2B;stroke-width:0.01778}
    .str1 {stroke:#0D7D46;stroke-width:0.03969}
    .str7 {stroke:black;stroke-width:0.00762;stroke-linejoin:bevel;stroke-dasharray:-19400.427980 -11776.588240}
    .fil1 {fill:none}
    .fil4 {fill:#9D4A2E}
    .fil2 {fill:#BDAB6F}
    .fil5 {fill:#D4C8C9}
    .fil3 {fill:#DB8234}
    .fil0 {fill:#E8DBAF}
   ]]>
  </style>
 </defs>
 <g id="图层_x0020_1">
  <metadata id="CorelCorpID_0Corel-Layer"/>
  <polygon class="fil0" points="1.11502,4.20276 3.93102,3.02175 4.50554,2.79216 10.3752,0.50294 10.5101,0.50296 10.5102,0.45884 11.7757,0.45714 13.607,1.22737 20.4158,4.19274 "/>
  <path class="fil1 str0" d="M0.24682 5.14868c6.89416,0.00698 13.7727,-0.01977 20.6465,-0.00322l-0.00401 0.02986c-6.89216,-0.00784 -13.7879,0.02561 -20.699,0.02954l0.0075 -0.05645 0.04908 0.00027 2e-005 0z"/>
  <polyline class="fil1 str1" points="20.5198,4.21623 13.6085,1.20499 11.7564,0.42987 "/>
  <path class="fil2" d="M11.7622 0.45765c0,0 0.13375,0.06911 0.19086,0.10185 0.0571,0.03275 0.16801,0.07088 0.29483,0.12534 0.12683,0.05447 0.41093,0.16502 0.45658,0.19721 0.04565,0.03218 0.39813,0.15646 0.4215,0.17436 0.02338,0.01791 0.19783,0.07114 0.23729,0.09336 0.03946,0.02222 0.21553,0.08007 0.26032,0.11419 0.04479,0.03413 0.27142,0.10783 0.30483,0.13342 0.03341,0.02558 0.24901,0.08667 0.30019,0.13501 0.05119,0.04834 0.33554,0.09381 0.40378,0.15921 0.06824,0.06541 0.20616,0.08816 0.20616,0.08816 0,0 0.16068,0.05791 0.22698,0.10067 0.0663,0.04276 0.18028,0.06524 0.22957,0.10754 0.0493,0.04229 0.31583,0.11789 0.41354,0.18701 0.09771,0.06912 0.24941,0.09818 0.32133,0.14359 0.07192,0.0454 0.14712,0.05313 0.14712,0.05313l0.37094 0.16956c0.71382,0.31755 1.42696,0.64935 2.12302,0.9432 0.1483,0.06261 0.33268,0.13771 0.5166,0.2117 0.18392,0.074 0.36744,0.14695 0.51389,0.20521 0.14647,0.05827 0.38672,0.1452 0.52207,0.22839 0.05447,0.03346 0.13389,0.05422 0.18986,0.06785 0.02374,0.00578 0.01071,0.00583 0.03524,0.00482l-5.8852 -2.57348 -0.73129 -0.3047 -0.22523 -0.09688 -0.2243 -0.09172 -1.60676 -0.6768 -0.00162 0.00408 -0.0121 -0.00528z"/>
  <polygon class="fil3 str2" points="0.92869,4.20065 1.11272,4.1946 10.3648,0.50442 10.3694,0.42157 "/>
  <polygon class="fil4" points="1.06931,4.19689 0.98571,4.19878 10.3645,0.45072 10.3646,0.49438 "/>
  <line class="fil1 str3" x1="10.4163" y1="0.4307" x2="11.6847" y2= "0.4307" />
  <polygon class="fil5" points="0.18975,4.21723 4.79388,4.20583 5.21827,4.20516 7.88827,4.20092 16.518,4.20238 17.0157,4.20238 18.1681,4.20238 18.4358,4.20446 20.9733,4.20238 20.8722,5.14546 7.66156,5.13719 3.08877,5.16403 0.19022,5.14841 "/>
  <line class="fil1 str3" x1="10.3694" y1="0.50295" x2="10.5337" y2= "0.50295" />
  <line class="fil1 str3" x1="10.4163" y1="0.33687" x2="10.4163" y2= "0.4307" />
  <line class="fil1 str3" x1="10.3694" y1="0.4307" x2="10.3694" y2= "0.33687" />
  <line class="fil1 str3" x1="10.5101" y1="0.45885" x2="10.5101" y2= "0.50295" />
  <line class="fil1 str3" x1="10.4445" y1="0.45885" x2="10.5101" y2= "0.45885" />
  <line class="fil1 str4" x1="10.3694" y1="0.4307" x2="10.3694" y2= "0.50295" />
  <line class="fil1 str3" x1="10.3694" y1="0.50295" x2="10.3694" y2= "0.4307" />
  <line class="fil1 str3" x1="10.3694" y1="0.33687" x2="10.4163" y2= "0.33687" />
  <line class="fil1 str3" x1="10.5101" y1="0.45885" x2="11.7758" y2= "0.45885" />
  <line class="fil1 str5" x1="11.7049" y1="0.33695" x2="11.7331" y2= "0.33695" />
  <line class="fil1 str5" x1="11.7049" y1="0.33695" x2="11.6978" y2= "0.40875" />
  <line class="fil1 str5" x1="11.7331" y1="0.33695" x2="11.7401" y2= "0.40875" />
  <line class="fil1 str5" x1="11.6978" y1="0.40875" x2="11.6823" y2= "0.40875" />
  <line class="fil1 str5" x1="11.6823" y1="0.40875" x2="11.6823" y2= "0.4307" />
  <line class="fil1 str5" x1="11.7555" y1="0.40875" x2="11.7555" y2= "0.4307" />
  <line class="fil1 str5" x1="11.7555" y1="0.40875" x2="11.7401" y2= "0.40875" />
  <line class="fil1 str5" x1="11.6823" y1="0.4307" x2="11.7555" y2= "0.4307" />
  <polyline class="fil1 str6" points="1.90943,4.20451 1.91542,4.25814 1.92932,4.20547 "/>
  <line class="fil1 str7" x1="0.13204" y1="4.20783" x2="8.32335" y2= "4.20238" />
  <polyline class="fil1 str6" points="6.90701,4.19996 6.91132,4.24028 6.92134,4.20068 "/>
  <polyline class="fil1 str6" points="7.4034,4.19974 7.40927,4.25464 7.42291,4.20072 "/>
  <polyline class="fil1 str6" points="4.4085,4.20236 4.41281,4.24268 4.42282,4.20308 "/>
  <polyline class="fil1 str6" points="8.40594,4.19944 8.41025,4.23976 8.42027,4.20016 "/>
  <polyline class="fil1 str6" points="7.90611,4.19985 7.91042,4.24017 7.92043,4.20057 "/>
  <polyline class="fil1 str6" points="9.60429,4.19815 9.6086,4.23847 9.61862,4.19887 "/>
  <polyline class="fil1 str6" points="10.103,4.19876 10.1073,4.23908 10.1173,4.19948 "/>
  <polyline class="fil1 str6" points="11.1007,4.20204 11.105,4.24236 11.1151,4.20276 "/>
  <polyline class="fil1 str6" points="11.5985,4.19841 11.6028,4.23873 11.6129,4.19913 "/>
  <polyline class="fil1 str6" points="12.0097,4.19895 12.014,4.23927 12.024,4.19967 "/>
  <polyline class="fil1 str6" points="12.5081,4.19863 12.5124,4.23896 12.5224,4.19935 "/>
  <polyline class="fil1 str6" points="13.0086,4.19938 13.013,4.2397 13.023,4.2001 "/>
  <polyline class="fil1 str6" points="13.5097,4.19944 13.514,4.23976 13.524,4.20016 "/>
  <polyline class="fil1 str6" points="3.90941,4.20204 3.91372,4.24236 3.92373,4.20276 "/>
  <polyline class="fil1 str6" points="3.41018,4.20308 3.41449,4.2434 3.4245,4.2038 "/>
  <polyline class="fil1 str6" points="2.90896,4.20281 2.91327,4.24314 2.92328,4.20353 "/>
  <polyline class="fil1 str6" points="2.41049,4.20304 2.4148,4.24336 2.42481,4.20376 "/>
  <polyline class="fil1 str6" points="1.41081,4.20349 1.41512,4.24381 1.42514,4.20421 "/>
  <polyline class="fil1 str6" points="4.90778,4.20388 4.91209,4.2442 4.92211,4.2046 "/>
  <polyline class="fil1 str6" points="5.40799,4.20129 5.4123,4.24161 5.42232,4.20201 "/>
  <polyline class="fil1 str6" points="6.40699,4.2008 6.4113,4.24113 6.42132,4.20152 "/>
  <polyline class="fil1 str6" points="5.9076,4.20068 5.91191,4.241 5.92193,4.2014 "/>
  <polyline class="fil1 str6" points="8.9039,4.19924 8.90821,4.23956 8.91823,4.19996 "/>
  <polyline class="fil1 str6" points="14.0076,4.1989 14.0119,4.23922 14.022,4.19962 "/>
  <polyline class="fil1 str6" points="14.5969,4.19883 14.6012,4.23915 14.6112,4.19955 "/>
  <polyline class="fil1 str6" points="15.0953,4.20164 15.0996,4.24196 15.1096,4.20236 "/>
  <polyline class="fil1 str6" points="15.5973,4.20014 15.6016,4.24046 15.6116,4.20086 "/>
  <polyline class="fil1 str6" points="16.096,4.19954 16.1003,4.23986 16.1104,4.20026 "/>
  <polyline class="fil1 str6" points="16.5964,4.19887 16.6008,4.23919 16.6108,4.19959 "/>
  <polyline class="fil1 str6" points="17.0957,4.20017 17.1001,4.24049 17.1101,4.20089 "/>
  <polyline class="fil1 str6" points="17.5932,4.19798 17.5975,4.2383 17.6076,4.1987 "/>
  <polyline class="fil1 str6" points="18.0958,4.19955 18.1001,4.23987 18.1101,4.20027 "/>
  <polyline class="fil1 str6" points="18.5954,4.19814 18.5997,4.23846 18.6097,4.19886 "/>
  <polyline class="fil1 str6" points="19.0937,4.19905 19.098,4.23937 19.108,4.19977 "/>
  <polyline class="fil1 str6" points="19.5952,4.19781 19.5995,4.23813 19.6095,4.19853 "/>
  <g id="_6377728">
   <polyline id="_6377920" class="fil1 str4" points="19.7544,3.87055 19.7526,3.81306 19.7361,3.78456 "/>
   <polyline id="_6377824" class="fil1 str4" points="19.7544,3.87055 19.7824,3.82276 19.7811,3.79657 "/>
   <polyline id="_6377704" class="fil1 str4" points="19.7544,3.87055 19.8055,3.84187 19.8412,3.84727 "/>
  </g>
  <polyline class="fil1 str6" points="10.6016,4.19945 10.6059,4.23977 10.6159,4.20017 "/>
  <polyline class="fil1 str6" points="20.0928,4.20105 20.0971,4.24137 20.1071,4.20177 "/>
  <polyline class="fil1 str6" points="20.5918,4.20105 20.5961,4.24137 20.6061,4.20177 "/>
  <polyline class="fil1 str7" points="8.32335,4.20238 9.54405,4.20238 9.56895,4.20128 9.6982,4.20128 9.73793,4.20238 20.9733,4.20238 "/>
  <g id="_247575368">
   <polyline id="_247252512" class="fil1 str4" points="18.7177,3.41477 18.716,3.35729 18.6994,3.32879 "/>
   <polyline id="_247584776" class="fil1 str4" points="18.7177,3.41477 18.7458,3.36699 18.7445,3.3408 "/>
   <polyline id="_247578776" class="fil1 str4" points="18.7177,3.41477 18.7689,3.3861 18.8045,3.3915 "/>
  </g>
  <g id="_247579880">
   <polyline id="_247580840" class="fil1 str4" points="17.4154,2.85177 17.4137,2.79429 17.3972,2.76579 "/>
   <polyline id="_247583960" class="fil1 str4" points="17.4154,2.85177 17.4435,2.80399 17.4422,2.7778 "/>
   <polyline id="_247579472" class="fil1 str4" points="17.4154,2.85177 17.4666,2.8231 17.5023,2.82849 "/>
  </g>
  <g id="_247577912">
   <polyline id="_247581872" class="fil1 str4" points="16.1928,2.3172 16.191,2.25972 16.1745,2.23122 "/>
   <polyline id="_247584560" class="fil1 str4" points="16.1928,2.3172 16.2208,2.26942 16.2195,2.24323 "/>
   <polyline id="_247581560" class="fil1 str4" points="16.1928,2.3172 16.2439,2.28853 16.2796,2.29393 "/>
  </g>
  <g id="_247084840">
   <polyline id="_247078576" class="fil1 str4" points="14.9825,1.79209 14.9807,1.73461 14.9642,1.70611 "/>
   <polyline id="_247078648" class="fil1 str4" points="14.9825,1.79209 15.0105,1.74431 15.0092,1.71812 "/>
   <polyline id="_247078792" class="fil1 str4" points="14.9825,1.79209 15.0336,1.76342 15.0693,1.76882 "/>
  </g>
  <g id="_247078936">
   <polyline id="_247079080" class="fil1 str4" points="13.8851,1.31519 13.8834,1.25771 13.8669,1.22921 "/>
   <polyline id="_247079152" class="fil1 str4" points="13.8851,1.31519 13.9131,1.26741 13.912,1.24122 "/>
   <polyline id="_247079224" class="fil1 str4" points="13.8851,1.31519 13.9364,1.28652 13.9719,1.29192 "/>
  </g>
  <g id="_247079368">
   <polyline id="_247079512" class="fil1 str4" points="13.1149,0.99023 13.1132,0.93275 13.0966,0.90425 "/>
   <polyline id="_247079584" class="fil1 str4" points="13.1149,0.99023 13.1429,0.94245 13.1416,0.91626 "/>
   <polyline id="_247079656" class="fil1 str4" points="13.1149,0.99023 13.166,0.96156 13.2017,0.96696 "/>
  </g>
  <g id="_247079800">
   <polyline id="_247079944" class="fil1 str4" points="12.2675,0.628 12.2658,0.57052 12.2492,0.54202 "/>
   <polyline id="_247080016" class="fil1 str4" points="12.2675,0.628 12.2955,0.58022 12.2943,0.55403 "/>
   <polyline id="_247080088" class="fil1 str4" points="12.2675,0.628 12.3186,0.59933 12.3543,0.60472 "/>
  </g>
 </g>
</svg>
